<svg width="23" height="23" viewBox="0 0 23 23" fill="none" xmlns="http://www.w3.org/2000/svg">
<path fill-rule="evenodd" clip-rule="evenodd" d="M11.5811 5.58594C14.598 5.73865 16.997 8.23319 16.9971 11.2881L16.9902 11.5811C16.8375 14.5979 14.3428 16.9969 11.2881 16.9971L10.9941 16.9902C8.07442 16.8423 5.73373 14.5008 5.58594 11.5811L5.57812 11.2881C5.57817 8.13481 8.13481 5.57817 11.2881 5.57812L11.5811 5.58594ZM11.2881 8.57812C9.79168 8.57817 8.57817 9.79168 8.57812 11.2881C8.57835 12.7843 9.7918 13.997 11.2881 13.9971C12.7842 13.9968 13.9968 12.7842 13.9971 11.2881C13.997 9.7918 12.7843 8.57835 11.2881 8.57812Z" fill="#825BDA"/>
<path fill-rule="evenodd" clip-rule="evenodd" d="M11.2812 0C17.5117 0 22.5625 5.05079 22.5625 11.2812C22.5625 17.5117 17.5117 22.5625 11.2812 22.5625C5.05079 22.5625 0 17.5117 0 11.2812C0 5.05079 5.05079 0 11.2812 0ZM11.2812 3C6.70764 3 3 6.70764 3 11.2812C3 15.8549 6.70764 19.5625 11.2812 19.5625C15.8549 19.5625 19.5625 15.8549 19.5625 11.2812C19.5625 6.70764 15.8549 3 11.2812 3Z" fill="#825BDA"/>
</svg>
