<svg width="499" height="554" viewBox="0 0 499 554" fill="none" xmlns="http://www.w3.org/2000/svg">
<path d="M23.2526 553.104C9.80382 553.104 1.57112 543.615 1.57112 531.486C1.57112 519.357 9.80382 509.867 23.2526 509.867C32.2395 509.867 38.7754 514.203 42.2947 520.739L32.8679 528.846C31.7367 524.761 28.4688 520.802 23.127 520.802C17.2824 520.802 13.8259 525.138 13.8259 531.486C13.8259 537.833 17.2824 542.169 23.127 542.169C28.4688 542.169 31.7367 538.21 32.8679 534.125L42.2947 542.232C38.7754 548.768 32.2395 553.104 23.2526 553.104ZM76.2874 552.602H44.6764V510.495H55.9885V542.546H76.2874V552.602ZM90.1113 552.602H78.7992V510.495H90.1113V552.602ZM128.591 552.602H96.3517V510.495H128.591V520.551H107.664V526.521H125.449V536.576H107.664V542.546H128.591V552.602ZM143.812 552.602H132.5V510.495H143.812L156.192 529.475L159.712 536.073L158.895 523.693V510.495H170.207V552.602H159.272L146.451 533.685L142.806 527.212L143.812 540.85V552.602ZM195.789 552.602H184.477V520.551H172.347V510.495H207.918V520.551H195.789V552.602ZM233.047 552.602H221.735V510.495H253.66V520.551H233.047V527.903H250.518V537.959H233.047V552.602ZM262.717 552.602H250.651L265.545 510.495H281.319L296.213 552.602H283.833L281.256 544.746H265.294L262.717 552.602ZM270.447 529.16L268.436 535.319H278.114L276.103 529.16L273.275 518.602L270.447 529.16ZM317.041 553.104C303.592 553.104 295.359 543.615 295.359 531.486C295.359 519.357 303.592 509.867 317.041 509.867C326.027 509.867 332.563 514.203 336.083 520.739L326.656 528.846C325.525 524.761 322.257 520.802 316.915 520.802C311.07 520.802 307.614 525.138 307.614 531.486C307.614 537.833 311.07 542.169 316.915 542.169C322.257 542.169 325.525 538.21 326.656 534.125L336.083 542.232C332.563 548.768 326.027 553.104 317.041 553.104ZM360.02 552.602H348.708V520.551H336.579V510.495H372.149V520.551H360.02V552.602ZM393.019 553.104C380.199 553.104 371.338 543.615 371.338 531.486C371.338 519.357 380.199 509.867 393.019 509.867C405.84 509.867 414.701 519.357 414.701 531.486C414.701 543.615 405.84 553.104 393.019 553.104ZM393.019 542.106C399.555 542.106 402.76 537.582 402.76 531.486C402.76 525.39 399.555 520.865 393.019 520.865C386.483 520.865 383.278 525.39 383.278 531.486C383.278 537.582 386.483 542.106 393.019 542.106ZM429.99 552.602H418.678V510.495H438.851C448.655 510.495 455.693 514.392 455.693 523.693C455.693 531.8 450.226 535.382 443.062 536.01C447.398 537.079 449.283 539.781 451.42 543.112L457.453 552.602H444.57L437.594 541.352C435.897 538.587 434.326 537.519 430.87 537.519H429.99V552.602ZM438.977 520.551H429.99V528.469H438.977C442.182 528.469 443.753 527.087 443.753 524.51C443.753 521.87 442.182 520.551 438.977 520.551ZM482.178 552.602H470.865V539.027L454.651 510.495H468.98L473.065 519.796L476.773 529.475L480.481 519.796L484.629 510.495H498.58L482.178 539.153V552.602Z" fill="black"/>
<path d="M165.264 308.586C146.564 308.586 131.344 323.806 131.344 342.516C131.344 361.226 146.564 376.436 165.264 376.436C183.964 376.436 199.194 361.216 199.194 342.516C199.194 323.816 183.974 308.586 165.264 308.586Z" fill="black"/>
<path d="M290.013 342.523C290.013 309.203 277.033 277.873 253.473 254.313C229.913 230.753 198.583 217.773 165.263 217.773C131.943 217.773 100.623 230.753 77.0634 254.313C53.5034 277.873 40.5234 309.203 40.5234 342.523C40.5234 375.843 53.5034 407.163 77.0634 430.723C100.623 454.283 131.953 467.263 165.263 467.263C198.573 467.263 229.913 454.283 253.473 430.723C277.033 407.163 290.013 375.833 290.013 342.523ZM165.263 416.443C124.443 416.443 91.3434 383.343 91.3434 342.523C91.3434 301.703 124.443 268.593 165.263 268.593C206.083 268.593 239.193 301.693 239.193 342.523C239.193 383.353 206.093 416.443 165.263 416.443Z" fill="black"/>
<path d="M14.81 409.719L6 486.219H84.64C53.92 468.939 29.29 442.099 14.81 409.719Z" fill="black"/>
<path d="M62.0034 0L34.0234 242.93C64.1134 203.33 111.703 177.77 165.263 177.77C166.323 177.77 167.383 177.78 168.443 177.8L145.563 0H62.0034Z" fill="black"/>
<path d="M387.327 179.55V104.89L282.438 176V104L171.188 177.88C259.427 181 330.008 253.52 330.008 342.52C330.008 404.21 296.087 457.99 245.887 486.22H493.997V107.55L387.327 179.55Z" fill="black"/>
<path d="M168.667 179.555L171.188 177.885C170.277 177.845 169.358 177.825 168.438 177.805L168.667 179.555Z" fill="black"/>
</svg>
