<svg width="128" height="128" viewBox="0 0 128 128" fill="none" xmlns="http://www.w3.org/2000/svg">
<path d="M46.7761 77.375C42.9716 77.375 39.875 80.4829 39.875 84.3034C39.875 88.1239 42.9716 91.2298 46.7761 91.2298C50.5807 91.2298 53.6793 88.1219 53.6793 84.3034C53.6793 80.4849 50.5827 77.375 46.7761 77.375Z" fill="#825BDA"/>
<path d="M72.1346 84.2861C72.1346 77.4822 69.4937 71.0847 64.7004 66.2739C59.907 61.463 53.5328 58.8125 46.7538 58.8125C39.9747 58.8125 33.6025 61.463 28.8092 66.2739C24.0158 71.0847 21.375 77.4822 21.375 84.2861C21.375 91.0899 24.0158 97.4854 28.8092 102.296C33.6025 107.107 39.9767 109.758 46.7538 109.758C53.5308 109.758 59.907 107.107 64.7004 102.296C69.4937 97.4854 72.1346 91.0879 72.1346 84.2861ZM46.7538 99.3803C38.4488 99.3803 31.7145 92.6214 31.7145 84.2861C31.7145 75.9508 38.4488 69.1898 46.7538 69.1898C55.0587 69.1898 61.7951 75.9487 61.7951 84.2861C61.7951 92.6234 55.0608 99.3803 46.7538 99.3803Z" fill="#825BDA"/>
<path d="M16.1674 98.0625L14.375 113.684H30.3746C24.1245 110.155 19.1134 104.674 16.1674 98.0625Z" fill="#825BDA"/>
<path d="M25.8176 14.3125L20.125 63.9181C26.2469 55.8319 35.9293 50.6126 46.8262 50.6126C47.0419 50.6126 47.2575 50.6147 47.4732 50.6187L42.8182 14.3125H25.8176Z" fill="#825BDA"/>
<path d="M91.9744 50.9896V35.7442L70.6342 50.2647V35.5625L48 50.6486C65.9527 51.2857 80.3125 66.094 80.3125 84.2676C80.3125 96.8645 73.4113 107.846 63.198 113.611H113.677V36.2874L91.9744 50.9896Z" fill="#825BDA"/>
<path d="M47.4846 51.046L48.0009 50.7039C47.8144 50.6957 47.626 50.6916 47.4375 50.6875L47.4846 51.046Z" fill="#825BDA"/>
</svg>
